<?xml version="1.0" encoding="utf-8"?>
<svg xmlns="http://www.w3.org/2000/svg" xmlns:xlink="http://www.w3.org/1999/xlink"
     width="1920" height="1080" viewBox="0 0 1920 1080">
  <rect width="1920" height="1080" fill="#0F2A1F" data-customize-color="background"/>
  <polygon points="200,300 130,420 270,420" fill="#1B5E20" data-customize-color="primary"/>
  <polygon points="200,260 145,360 255,360" fill="#2E7D32" data-customize-color="primary"/>
  <polygon points="200,220 160,300 240,300" fill="#388E3C" data-customize-color="primary"/>
  <rect x="190" y="420" width="20" height="40" fill="#3D2817" data-customize-color="accent"/>
  <polygon points="500,360 430,480 570,480" fill="#1B5E20" data-customize-color="primary"/>
  <polygon points="500,320 445,420 555,420" fill="#2E7D32" data-customize-color="primary"/>
  <polygon points="500,280 460,360 540,360" fill="#388E3C" data-customize-color="primary"/>
  <rect x="490" y="480" width="20" height="40" fill="#3D2817" data-customize-color="accent"/>
  <polygon points="1420,360 1350,480 1490,480" fill="#1B5E20" data-customize-color="primary"/>
  <polygon points="1420,320 1365,420 1475,420" fill="#2E7D32" data-customize-color="primary"/>
  <polygon points="1420,280 1380,360 1460,360" fill="#388E3C" data-customize-color="primary"/>
  <rect x="1410" y="480" width="20" height="40" fill="#3D2817" data-customize-color="accent"/>
  <polygon points="1720,300 1650,420 1790,420" fill="#1B5E20" data-customize-color="primary"/>
  <polygon points="1720,260 1665,360 1775,360" fill="#2E7D32" data-customize-color="primary"/>
  <polygon points="1720,220 1680,300 1760,300" fill="#388E3C" data-customize-color="primary"/>
  <rect x="1710" y="420" width="20" height="40" fill="#3D2817" data-customize-color="accent"/>
  <rect x="0" y="780" width="1920" height="300" fill="#FAFAFA" data-customize-color="card"/>
  <image id="logo" x="940" y="820" width="40" height="40" xlink:href=""
         preserveAspectRatio="xMidYMid meet" data-customize-logo="brand"/>
  <text id="text-headline" x="960" y="940" font-family="Georgia, serif"
        font-size="84" font-weight="700" fill="#0F2A1F" text-anchor="middle"
        data-customize-text="headline">
    Winter Wonderland
  </text>
  <text id="text-subheadline" x="960" y="1010" font-family="Helvetica, Arial, sans-serif"
        font-size="36" fill="#1B5E20" text-anchor="middle"
        data-customize-text="subheadline">
    Add your seasonal greeting
  </text>
</svg>
