<?xml version="1.0" encoding="utf-8"?>
<!-- Generator: Adobe Adobe Illustrator 29.2.0, SVG Export Plug-In . SVG Version: 6.00 Build 0)  -->
<svg version="1.1" id="Print" xmlns="http://www.w3.org/2000/svg" xmlns:xlink="http://www.w3.org/1999/xlink" x="0px" y="0px"
	 viewBox="0 0 841.89 595.28" style="enable-background:new 0 0 841.89 595.28;" xml:space="preserve">
<style type="text/css">
	.st0{fill:none;}
	.st1{fill:#FFFFFF;}
	.st2{fill:#C8C8C8;}
	.st3{fill:#ECE2D6;}
	.st4{clip-path:url(#SVGID_00000059988494159615919460000013715497614410808482_);}
	.st5{opacity:0.3;fill:#EEAB37;}
	.st6{clip-path:url(#SVGID_00000059988494159615919460000013715497614410808482_);fill:none;stroke:#FFFFFF;stroke-miterlimit:10;}
	.st7{opacity:0.3;clip-path:url(#SVGID_00000059988494159615919460000013715497614410808482_);fill:#EEAB37;}
	.st8{clip-path:url(#SVGID_00000059988494159615919460000013715497614410808482_);fill:none;stroke:#FBF8F7;stroke-miterlimit:10;}
	.st9{fill:none;stroke:#333333;stroke-width:0.8637;stroke-miterlimit:10;}
	.st10{fill:none;stroke:#333333;stroke-width:0.8926;stroke-miterlimit:10;}
	.st11{fill:none;stroke:#333333;stroke-width:0.8575;stroke-miterlimit:10;}
	.st12{fill:#E98813;}
	.st13{font-family:'Poppins-SemiBold';}
	.st14{font-size:20px;}
	.st15{fill:#333333;}
	.st16{font-family:'Poppins-Regular';}
	.st17{font-size:11px;}
	.st18{fill:none;stroke:#333333;stroke-width:1.7102;stroke-linecap:round;stroke-linejoin:round;}
	.st19{fill:none;stroke:#333333;stroke-width:1.7102;stroke-linecap:round;stroke-linejoin:round;stroke-dasharray:0,5.9276;}
	.st20{font-family:'Poppins-Medium';}
	.st21{fill:#666666;}
	.st22{font-family:'Poppins-ExtraLightItalic';}
	.st23{font-size:10px;}
	.st24{fill:none;stroke:#333333;stroke-width:1.7102;stroke-linecap:round;stroke-linejoin:round;stroke-dasharray:0,6.0889;}
	.st25{fill:none;stroke:#333333;stroke-width:1.7102;stroke-linecap:round;stroke-linejoin:round;stroke-dasharray:0,6.0702;}
	.st26{font-family:'Poppins-Light';}
	.st27{fill:#EEAB37;}
	.st28{font-family:'FrederickatheGreat-Regular';}
	.st29{font-size:57.6802px;}
	.st30{font-size:27.0916px;}
	.st31{fill:none;stroke:#333333;stroke-width:1.7102;stroke-linecap:round;stroke-linejoin:round;stroke-dasharray:0,5.8542;}
	.st32{fill:none;stroke:#333333;stroke-width:1.7102;stroke-linecap:round;stroke-linejoin:round;stroke-dasharray:0,6.0087;}
	.st33{fill:none;stroke:#333333;stroke-width:1.7102;stroke-linecap:round;stroke-linejoin:round;stroke-dasharray:0,5.9352;}
	.st34{fill:none;stroke:#333333;stroke-width:1.7102;stroke-linecap:round;stroke-linejoin:round;stroke-dasharray:0,5.9461;}
	.st35{fill:none;stroke:#333333;stroke-width:1.7102;stroke-linecap:round;stroke-linejoin:round;stroke-dasharray:0,5.9311;}
	.st36{fill:none;stroke:#333333;stroke-width:1.7102;stroke-linecap:round;stroke-linejoin:round;stroke-dasharray:0,5.9259;}
	.st37{fill:none;stroke:#333333;stroke-width:1.7102;stroke-linecap:round;stroke-linejoin:round;stroke-dasharray:0,5.9828;}
	.st38{fill:none;stroke:#333333;stroke-width:1.7102;stroke-linecap:round;stroke-linejoin:round;stroke-dasharray:0,6.1361;}
	
		.st39{fill:none;stroke:#333333;stroke-width:1.7102;stroke-linecap:round;stroke-linejoin:round;stroke-miterlimit:10;stroke-dasharray:0,5.9855;}
	.st40{font-size:13.2912px;}
	.st41{font-size:13.564px;}
	.st42{font-size:20.899px;}
</style>
<pattern  width="30" height="30" patternUnits="userSpaceOnUse" id="New_Pattern_Swatch_4" viewBox="0 -30 30 30" style="overflow:visible;">
	<g>
		<rect y="-30" class="st0" width="30" height="30"/>
		<rect y="-30" class="st1" width="15" height="15"/>
		<rect x="15" y="-30" class="st2" width="15" height="15"/>
		<rect y="-15" class="st2" width="15" height="15"/>
		<rect x="15" y="-15" class="st1" width="15" height="15"/>
	</g>
</pattern>
<g>
	<rect x="-8.5" y="-8.5" class="st3" width="858.9" height="612.28"/>
	<g>
		<defs>
			<rect id="SVGID_1_" x="-8.5" y="-8.5" width="858.9" height="612.28"/>
		</defs>
		<clipPath id="SVGID_00000023252426943758541970000016936034037649522094_">
			<use xlink:href="#SVGID_1_"  style="overflow:visible;"/>
		</clipPath>
		<g style="clip-path:url(#SVGID_00000023252426943758541970000016936034037649522094_);">
			<path class="st5" d="M830.93,444.74c-7.51,3.71-14.82,8.04-22.82,10.63c-18.38,5.96-37.62,1.29-55.83-4.04
				c-54.61-16-199.94-27-235.75,152.45h333.87V438.14C843.58,438.84,837.01,441.75,830.93,444.74z"/>
			<path class="st5" d="M604.67,47.83c7.67,36.5-9.12,53-3.83,80.17c7.87,40.44,65.09,40.44,81.61,43.62
				c16.68,3.21,32.05,10.55,48.8,13.38c66.08,11.15,110-12.86,119.14-24.25V-8.5H590.67C582,23.67,601.18,31.25,604.67,47.83z"/>
			<path class="st5" d="M332,498.5c-22.08-6.92-45.92-7.63-68.51-2.08c-21.35,5.25-42.46,16.77-59.16,30.58
				c-11.93,9.87-20.11,22.67-33.43,30.67c-13,7.81-28.6,10.46-43.54,8.12c-39.89-6.26-63.63-43.51-92.85-67.32
				C21.94,488.23,7.89,480.04-8.5,478.23v125.56h439C430.13,599.19,404.86,521.33,332,498.5z"/>
		</g>
		
			<path style="clip-path:url(#SVGID_00000023252426943758541970000016936034037649522094_);fill:none;stroke:#FFFFFF;stroke-miterlimit:10;" d="
			M538.58,611.05c-0.69-34.58,20.56-68.63,51.93-83.2c35.86-16.66,78.2-8.18,116.78-16.84c32.87-7.38,62.63-27.78,81.36-55.78
			c10.18-15.22,17.22-32.54,28.84-46.7c11.62-14.16,29.94-25.08,47.75-20.8"/>
		
			<path style="clip-path:url(#SVGID_00000023252426943758541970000016936034037649522094_);fill:none;stroke:#FFFFFF;stroke-miterlimit:10;" d="
			M506.49-14.86c-7.11,29.85,23.55,48.38,48.06,53.6c16.94,3.61,35.52,3.46,47.65,17.74c10.71,12.61,11.59,29.17,17.08,44.04
			c23.14,62.7,86.31,104.82,152.95,103.75c33.4-0.54,66.32-10.24,94.44-28.34c2.93-1.89,5.81-3.86,8.63-5.92"/>
		
			<path style="clip-path:url(#SVGID_00000023252426943758541970000016936034037649522094_);fill:none;stroke:#FFFFFF;stroke-miterlimit:10;" d="
			M-16.45,505.33c8.82-8.65,23.39-9.15,34.62-4.01c25.1,11.49,32.75,39.38,51.23,57.43c20.4,19.92,43.6,25.83,71.1,20.25
			c32-6.5,36.17-32,80.17-56c47.94-26.15,116.52-5.8,145.06,12.79c33.69,21.96,49.08,59.87,49.77,70.71"/>
		<path style="opacity:0.3;clip-path:url(#SVGID_00000023252426943758541970000016936034037649522094_);fill:#EEAB37;" d="
			M74.75,250.5C123.5,228,138.45,169.03,143,161c17-30,72.6-35.05,87.4-40.08C281,103.75,304,45.5,291.18-8.5H-8.5v258.13
			C5,257.75,50.82,261.55,74.75,250.5z"/>
		<g style="clip-path:url(#SVGID_00000023252426943758541970000016936034037649522094_);">
			<defs>
				<path id="SVGID_00000067943453937290271520000002473099759104309180_" d="M179.41-18.29c0,0,10.94,4.13,12.92,5.97
					c1.98,1.83-10.32,38.63-10.32,38.63S208.63,35.4,209.5,38c0.87,2.6-9.45,27.88-12.15,28.65c-1.46,0.42-7.96-3.27-14.68-6.75
					c-5.73-2.97-11.24-5.03-11.24-5.03l-18.23,38.06l-32.96-11.57c0,0,13.11,16.77,14.46,20.82c1.35,4.05,2.31,16-4.82,25.83
					c-7.13,9.83-85.01,73.06-88.29,74.8c-3.28,1.73-20.05,6.55-34.51-5.2c-14.46-11.76-29.3-31.23-29.3-31.23
					s-6.75-13.69-15.61-16.96c-4.05-4.63-16.77-17.73-16.77-17.73V-18.06C-54.62-18.06,179.41-18.87,179.41-18.29z"/>
			</defs>
			
				<use xlink:href="#SVGID_00000067943453937290271520000002473099759104309180_"  style="overflow:visible;fill:url(#New_Pattern_Swatch_4);"/>
			<clipPath id="SVGID_00000055675752510791676620000002129420676030366372_">
				<use xlink:href="#SVGID_00000067943453937290271520000002473099759104309180_"  style="overflow:visible;"/>
			</clipPath>
		</g>
		<g style="clip-path:url(#SVGID_00000023252426943758541970000016936034037649522094_);">
			<defs>
				<circle id="SVGID_00000080170356456759332850000010240235425186257560_" cx="286.33" cy="618.83" r="115.5"/>
			</defs>
			
				<use xlink:href="#SVGID_00000080170356456759332850000010240235425186257560_"  style="overflow:visible;fill:url(#New_Pattern_Swatch_4);"/>
			<clipPath id="SVGID_00000003071384671130528140000002402599861376399510_">
				<use xlink:href="#SVGID_00000080170356456759332850000010240235425186257560_"  style="overflow:visible;"/>
			</clipPath>
		</g>
		<g style="clip-path:url(#SVGID_00000023252426943758541970000016936034037649522094_);">
			<defs>
				<circle id="SVGID_00000130647233499231035150000002725009541442302639_" cx="769.33" cy="21.17" r="151.17"/>
			</defs>
			
				<use xlink:href="#SVGID_00000130647233499231035150000002725009541442302639_"  style="overflow:visible;fill:url(#New_Pattern_Swatch_4);"/>
			<clipPath id="SVGID_00000008134022836825625150000004197220194993930676_">
				<use xlink:href="#SVGID_00000130647233499231035150000002725009541442302639_"  style="overflow:visible;"/>
			</clipPath>
		</g>
		<g style="clip-path:url(#SVGID_00000023252426943758541970000016936034037649522094_);">
			<defs>
				<path id="SVGID_00000134209785572099321810000007563938860839423932_" d="M859.22,467.18c-2.83-2.46-14.08-16.58-39.62-3.17
					c-19.39,10.18-29.38,8.22-33.06,6.69c-0.27-0.13-0.55-0.25-0.82-0.38c-0.6-0.31-0.88-0.54-0.88-0.54l0.18,0.22
					c-41.87-18.87-92.38-15.46-132.28,13.35c-42.27,30.52-61.23,81.3-53.2,129.46c-0.29,1.33-1.77,7.21-6.06,12.87
					c-4.89,6.43-20.22,18.57-21.35,31.3c-1.13,12.73,10.09,30.84,20.93,43.66c10.84,12.82,16.11,23.05,33.78,19.29
					c17.34-3.69,26.29-14.06,39.97-12.57c43.44,23.67,98.43,21.98,141.22-8.91c44.01-31.77,62.76-85.53,52.07-135.41l0.07,0.09
					c0,0,3.4-4.83,13.39-16.29c18.39-19.63,15.19-25.52,14.14-36.15C886.66,500.05,862.05,469.63,859.22,467.18z M640.01,706.06
					c-14.9,10.36-22.07,0.97-25.09-0.28c-3.02-1.26-24.83-32.37-29.04-39.13c-4.21-6.75-2.33-19.37,5.56-25.85
					c7.89-6.49,15.37,2.4,15.37,2.4s8.57,16.45,12.51,22.47c3.95,6.02,14.64,17.89,21.63,24.09
					C646.88,696.79,643.06,702.86,640.01,706.06z M876.72,517.82c0.68,3.88,0.62,14.24-4.91,18.51c-5.53,4.25-12.01,8.67-17.77,2.51
					c-5.77-6.16-8.28-18.25-18.08-30.36c-9.8-12.12-18.81-19.64-19.28-21.02c0,0-3.57-7.88,0.64-11.58
					c4.21-3.7,15.37-9.51,25.53-3.87C853,477.63,876.04,513.94,876.72,517.82z"/>
			</defs>
			
				<use xlink:href="#SVGID_00000134209785572099321810000007563938860839423932_"  style="overflow:visible;fill:url(#New_Pattern_Swatch_4);"/>
			<clipPath id="SVGID_00000140012373405932730560000000370311619317438881_">
				<use xlink:href="#SVGID_00000134209785572099321810000007563938860839423932_"  style="overflow:visible;"/>
			</clipPath>
		</g>
		
			<path style="clip-path:url(#SVGID_00000023252426943758541970000016936034037649522094_);fill:none;stroke:#FBF8F7;stroke-miterlimit:10;" d="
			M271.8-11.03c-0.34,31.08-15.81,60.39-40.2,79.33c-18.54,14.4-41.57,21.88-59.25,37.51c-10.51,9.29-18.7,21.08-23.93,34.09
			c-5.89,14.66-6.98,30.89-10.94,46.1c-7.43,28.48-30.48,53.61-59.25,59.05c-36.73,6.94-67.16-2.39-93.05-22.19"/>
	</g>
	<g>
		<g>
			<line class="st9" x1="85.67" y1="416.83" x2="255.67" y2="416.83"/>
			<line class="st10" x1="380.75" y1="292.33" x2="554.25" y2="292.33"/>
			<line class="st11" x1="636.94" y1="356.83" x2="797.06" y2="356.83"/>
		</g>
		<g>
			<g>
				<text transform="matrix(1 0 0 1 47.23 264.0693)" class="st12 st13 st14">STARTERS</text>
				<g>
					<text transform="matrix(1 0 0 1 52.125 289.2505)" class="st15 st16 st17">TOMATO SOUP</text>
					<g>
						<g>
							<line class="st18" x1="127.35" y1="288.83" x2="127.35" y2="288.83"/>
							<line class="st19" x1="133.28" y1="288.83" x2="248.87" y2="288.83"/>
							<line class="st18" x1="251.83" y1="288.83" x2="251.83" y2="288.83"/>
						</g>
					</g>
					<g>
						<text transform="matrix(1 0 0 1 260.502 289.5005)" class="st15 st20 st17">$ 10.00</text>
					</g>
					<rect x="49.38" y="298.17" class="st0" width="243.79" height="22.67"/>
					<text transform="matrix(1 0 0 1 49.375 305.5659)"><tspan x="0" y="0" class="st21 st22 st23">Lorem ipsum dolor sit amet, consectetur adipis </tspan><tspan x="0" y="12" class="st21 st22 st23">cing elit mauris. </tspan></text>
				</g>
				<g>
					<text transform="matrix(1 0 0 1 52.125 337.917)" class="st15 st16 st17">CHICKEN SOUP</text>
					<g>
						<g>
							<line class="st18" x1="127.35" y1="337.5" x2="127.35" y2="337.5"/>
							<line class="st19" x1="133.28" y1="337.5" x2="248.87" y2="337.5"/>
							<line class="st18" x1="251.83" y1="337.5" x2="251.83" y2="337.5"/>
						</g>
					</g>
					<g>
						<text transform="matrix(1 0 0 1 260.502 338.167)" class="st15 st20 st17">$ 10.00</text>
					</g>
					<g>
						<rect x="49.38" y="346.83" class="st0" width="242.79" height="22.67"/>
						<text transform="matrix(1 0 0 1 49.375 354.2324)" class="st21 st22 st23">Lorem ipsum dolor sit amet, consectetur.</text>
					</g>
				</g>
				<g>
					<text transform="matrix(1 0 0 1 52.125 374.2505)" class="st15 st16 st17">CRISPY CORN</text>
					<g>
						<g>
							<line class="st18" x1="127.35" y1="373.83" x2="127.35" y2="373.83"/>
							<line class="st19" x1="133.28" y1="373.83" x2="248.87" y2="373.83"/>
							<line class="st18" x1="251.83" y1="373.83" x2="251.83" y2="373.83"/>
						</g>
					</g>
					<g>
						<text transform="matrix(1 0 0 1 260.502 374.5005)" class="st15 st20 st17">$ 10.00</text>
					</g>
					<g>
						<rect x="49.38" y="383.17" class="st0" width="243.46" height="22.67"/>
						<text transform="matrix(1 0 0 1 49.375 390.5659)"><tspan x="0" y="0" class="st21 st22 st23">Lorem ipsum dolor sit amet, consectetur adipis </tspan><tspan x="0" y="12" class="st21 st22 st23">cing elit mauris. </tspan></text>
					</g>
				</g>
			</g>
			<g>
				<g>
					<text transform="matrix(1 0 0 1 52.125 462.5835)" class="st15 st16 st17">GUACAMOLE SALAD</text>
					<g>
						<g>
							<line class="st18" x1="160.5" y1="462.17" x2="160.5" y2="462.17"/>
							<line class="st24" x1="166.59" y1="462.17" x2="248.79" y2="462.17"/>
							<line class="st18" x1="251.83" y1="462.17" x2="251.83" y2="462.17"/>
						</g>
					</g>
					<g>
						<text transform="matrix(1 0 0 1 260.502 463.667)" class="st15 st20 st17">$ 10.00</text>
					</g>
					<g>
						<rect x="49.38" y="471.5" class="st0" width="244.46" height="15.33"/>
						<text transform="matrix(1 0 0 1 49.375 478.9009)" class="st21 st22 st23">Lorem ipsum dolor sit amet, consectetur adipis </text>
					</g>
				</g>
				<g>
					<text transform="matrix(1 0 0 1 52.125 496.917)" class="st15 st16 st17">CHICKEN SALAD</text>
					<g>
						<g>
							<line class="st18" x1="136.5" y1="496.5" x2="136.5" y2="496.5"/>
							<line class="st25" x1="142.57" y1="496.5" x2="248.8" y2="496.5"/>
							<line class="st18" x1="251.83" y1="496.5" x2="251.83" y2="496.5"/>
						</g>
					</g>
					<g>
						<text transform="matrix(1 0 0 1 260.502 497.0005)" class="st15 st20 st17">$ 10.00</text>
					</g>
					<g>
						<rect x="49.38" y="505.83" class="st0" width="188.38" height="31"/>
						<text transform="matrix(1 0 0 1 49.375 513.2344)"><tspan x="0" y="0" class="st21 st22 st23">Lorem ipsum dolor sit amet, conse </tspan><tspan x="0" y="12" class="st21 st22 st23">ctetur adipiscing elit.</tspan></text>
					</g>
				</g>
				<text transform="matrix(1 0 0 1 52.6665 442.3335)" class="st12 st13 st14">SALADS</text>
			</g>
			<g>
				<rect x="47.75" y="199.83" class="st0" width="254" height="38.5"/>
				<text transform="matrix(1 0 0 1 47.8521 207.2334)"><tspan x="0" y="0" class="st15 st26 st23">Lorem ipsum dolor sit amet, consectetur adipiscing </tspan><tspan x="3.75" y="12" class="st15 st26 st23">elit. Mauris interdum est risus, convallis accumsan </tspan><tspan x="70.72" y="24" class="st15 st26 st23">leo inter dum placerat. </tspan></text>
				<polygon class="st27" points="311.08,179.65 103.92,179.65 116.44,164.47 103.92,149.68 311.08,149.68 				"/>
				<g>
					<text transform="matrix(1 0 0 1 129.9229 135.2495)" class="st12 st28 st29">MENU</text>
				</g>
				<text transform="matrix(1 0 0 1 123.8467 174.8262)" class="st15 st20 st30">RESTAURANT</text>
			</g>
			<g>
				<text transform="matrix(1 0 0 1 345.25 332.4165)" class="st12 st13 st14">DESSERTS</text>
				<g>
					<g>
						<text transform="matrix(1 0 0 1 346 356.542)" class="st15 st16 st17">FRUIT AND CREAM</text>
					</g>
					<g>
						<g>
							<line class="st18" x1="445.83" y1="356.12" x2="445.83" y2="356.12"/>
							<line class="st31" x1="451.69" y1="356.12" x2="548.28" y2="356.12"/>
							<line class="st18" x1="551.21" y1="356.12" x2="551.21" y2="356.12"/>
						</g>
					</g>
					<g>
						<text transform="matrix(1 0 0 1 556.3125 357.792)" class="st15 st20 st17">$ 5.00</text>
					</g>
					<g>
						<rect x="346" y="365.46" class="st0" width="243.79" height="12.21"/>
						<text transform="matrix(1 0 0 1 346 372.8574)" class="st21 st22 st23">Lorem ipsum dolor sit amet, consectetur.</text>
					</g>
				</g>
				<g>
					<g>
						<text transform="matrix(1 0 0 1 346 391.75)" class="st15 st16 st17">ICE CREAM</text>
					</g>
					<g>
						<g>
							<line class="st18" x1="407" y1="391.33" x2="407" y2="391.33"/>
							<line class="st32" x1="413.01" y1="391.33" x2="548.2" y2="391.33"/>
							<line class="st18" x1="551.21" y1="391.33" x2="551.21" y2="391.33"/>
						</g>
					</g>
					<g>
						<text transform="matrix(1 0 0 1 556.3125 393)" class="st15 st20 st17">$ 5.00</text>
					</g>
					<g>
						<rect x="346" y="400.67" class="st0" width="243.79" height="13.54"/>
						<text transform="matrix(1 0 0 1 346 408.0654)" class="st21 st22 st23">Lorem ipsum dolor sit amet, consectetur adi cing.</text>
					</g>
				</g>
				<g>
					<g>
						<text transform="matrix(1 0 0 1 346 426.9585)" class="st15 st16 st17">CHOCOLATE CAKE</text>
					</g>
					<g>
						<g>
							<line class="st18" x1="444.38" y1="426.54" x2="444.38" y2="426.54"/>
							<line class="st33" x1="450.31" y1="426.54" x2="548.24" y2="426.54"/>
							<line class="st18" x1="551.21" y1="426.54" x2="551.21" y2="426.54"/>
						</g>
					</g>
					<g>
						<text transform="matrix(1 0 0 1 556.3125 428.2085)" class="st15 st20 st17">$ 5.00</text>
					</g>
					<g>
						<rect x="346" y="435.88" class="st0" width="243.79" height="13.54"/>
						<text transform="matrix(1 0 0 1 346 443.2739)" class="st21 st22 st23">Lorem ipsum dolor sit amet.</text>
					</g>
				</g>
				<g>
					<g>
						<text transform="matrix(1 0 0 1 346 462.1665)" class="st15 st16 st17">STRAWBERRY CAKE</text>
					</g>
					<g>
						<g>
							<line class="st18" x1="450.12" y1="461.75" x2="450.12" y2="461.75"/>
							<line class="st34" x1="456.07" y1="461.75" x2="548.24" y2="461.75"/>
							<line class="st18" x1="551.21" y1="461.75" x2="551.21" y2="461.75"/>
						</g>
					</g>
					<g>
						<text transform="matrix(1 0 0 1 556.3125 463.4165)" class="st15 st20 st17">$ 5.00</text>
					</g>
					<g>
						<rect x="346" y="471.08" class="st0" width="243.79" height="13.54"/>
						<text transform="matrix(1 0 0 1 346 478.4819)" class="st21 st22 st23">Lorem ipsum dolor sit amet, consetur adipis cing.</text>
					</g>
				</g>
				<g>
					<g>
						<text transform="matrix(1 0 0 1 346 497.3755)" class="st15 st16 st17">APPLE PIE</text>
					</g>
					<g>
						<g>
							<line class="st18" x1="397" y1="496.96" x2="397" y2="496.96"/>
							<line class="st35" x1="402.93" y1="496.96" x2="548.24" y2="496.96"/>
							<line class="st18" x1="551.21" y1="496.96" x2="551.21" y2="496.96"/>
						</g>
					</g>
					<g>
						<text transform="matrix(1 0 0 1 556.3125 498.6255)" class="st15 st20 st17">$ 5.00</text>
					</g>
					<g>
						<rect x="346" y="506.29" class="st0" width="243.79" height="13.54"/>
						<text transform="matrix(1 0 0 1 346 513.6909)" class="st21 st22 st23">Lorem ipsum dolor sit amet.</text>
					</g>
				</g>
			</g>
			<g>
				<text transform="matrix(1 0 0 1 344.1812 61.75)" class="st12 st13 st14">MAIN COURSES</text>
				<g>
					<g>
						<text transform="matrix(1 0 0 1 346 87.042)" class="st15 st16 st17">GRILLED FISH AND POTATOES</text>
					</g>
					<g>
						<g>
							<line class="st18" x1="497.88" y1="86.62" x2="497.88" y2="86.62"/>
							<line class="st36" x1="503.8" y1="86.62" x2="548.25" y2="86.62"/>
							<line class="st18" x1="551.21" y1="86.62" x2="551.21" y2="86.62"/>
						</g>
					</g>
					<g>
						<text transform="matrix(1 0 0 1 554.377 87.292)" class="st15 st20 st17">$ 10.00</text>
					</g>
					<g>
						<rect x="346" y="95.96" class="st0" width="243.79" height="22.67"/>
						<text transform="matrix(1 0 0 1 346 103.3574)"><tspan x="0" y="0" class="st21 st22 st23">Lorem ipsum dolor sit amet, consectetur adipis </tspan><tspan x="0" y="12" class="st21 st22 st23">cing elit mauris. </tspan></text>
					</g>
				</g>
				<g>
					<g>
						<text transform="matrix(1 0 0 1 346 135.9307)" class="st15 st16 st17">CHICKEN AND RICE</text>
					</g>
					<g>
						<g>
							<line class="st18" x1="449.5" y1="135.51" x2="449.5" y2="135.51"/>
							<line class="st37" x1="455.48" y1="135.51" x2="548.22" y2="135.51"/>
							<line class="st18" x1="551.21" y1="135.51" x2="551.21" y2="135.51"/>
						</g>
					</g>
					<g>
						<text transform="matrix(1 0 0 1 554.377 136.1807)" class="st15 st20 st17">$ 10.00</text>
					</g>
					<g>
						<rect x="346" y="144.85" class="st0" width="243.79" height="22.67"/>
						<text transform="matrix(1 0 0 1 346 152.2461)"><tspan x="0" y="0" class="st21 st22 st23">Lorem ipsum dolor sit amet, consectetur adipis </tspan><tspan x="0" y="12" class="st21 st22 st23">cing elit mauris. </tspan></text>
					</g>
				</g>
				<g>
					<g>
						<text transform="matrix(1 0 0 1 346 184.8198)" class="st15 st16 st17">TURKEY AND HAM PIE</text>
					</g>
					<g>
						<g>
							<line class="st18" x1="459.17" y1="184.4" x2="459.17" y2="184.4"/>
							<line class="st38" x1="465.3" y1="184.4" x2="548.14" y2="184.4"/>
							<line class="st18" x1="551.21" y1="184.4" x2="551.21" y2="184.4"/>
						</g>
					</g>
					<g>
						<text transform="matrix(1 0 0 1 554.377 185.0698)" class="st15 st20 st17">$ 10.00</text>
					</g>
					<g>
						<rect x="346" y="193.74" class="st0" width="243.79" height="22.67"/>
						<text transform="matrix(1 0 0 1 346 201.1353)"><tspan x="0" y="0" class="st21 st22 st23">Lorem ipsum dolor sit amet, consectetur adipis </tspan><tspan x="0" y="12" class="st21 st22 st23">cing elit mauris. </tspan></text>
					</g>
				</g>
				<g>
					<g>
						<text transform="matrix(1 0 0 1 554.377 234.6255)" class="st15 st20 st17">$ 10.00</text>
					</g>
					<g>
						<text transform="matrix(1 0 0 1 346 233.7085)" class="st15 st16 st17">VEGETABLE PASTA</text>
					</g>
					<g>
						<g>
							<line class="st18" x1="449.5" y1="233.29" x2="449.5" y2="233.29"/>
							<line class="st37" x1="455.48" y1="233.29" x2="548.22" y2="233.29"/>
							<line class="st18" x1="551.21" y1="233.29" x2="551.21" y2="233.29"/>
						</g>
					</g>
					<g>
						<rect x="346" y="242.62" class="st0" width="243.79" height="22.67"/>
						<text transform="matrix(1 0 0 1 346 250.0239)"><tspan x="0" y="0" class="st21 st22 st23">Lorem ipsum dolor sit amet, consectetur adipis </tspan><tspan x="0" y="12" class="st21 st22 st23">cing elit mauris. </tspan></text>
					</g>
				</g>
			</g>
			<g>
				<g>
					<g>
						<text transform="matrix(1 0 0 1 625.5464 262.8784)" class="st15 st16 st17">COFFEE</text>
					</g>
					<line class="st39" x1="668.5" y1="262.58" x2="760" y2="262.58"/>
					<g>
						<text transform="matrix(1 0 0 1 761.2373 263.3755)" class="st15 st20 st17">$ 2.00</text>
					</g>
					<g>
						<rect x="625.33" y="269.21" class="st0" width="137.5" height="13.54"/>
						<text transform="matrix(1 0 0 1 625.333 276.6074)" class="st21 st22 st23">Lorem ipsum dolor sit amet.</text>
					</g>
				</g>
				<g>
					<g>
						<text transform="matrix(1 0 0 1 625.5464 295.6699)" class="st15 st16 st17">TEA</text>
					</g>
					<line class="st39" x1="648.12" y1="295.38" x2="760" y2="295.38"/>
					<g>
						<text transform="matrix(1 0 0 1 761.2373 296.167)" class="st15 st20 st17">$ 2.00</text>
					</g>
					<g>
						<rect x="625.33" y="302" class="st0" width="137.5" height="13.54"/>
						<text transform="matrix(1 0 0 1 625.333 309.3994)" class="st21 st22 st23">Lorem ipsum dolor sit amet.</text>
					</g>
				</g>
				<g>
					<g>
						<text transform="matrix(1 0 0 1 625.5464 328.4614)" class="st15 st16 st17">WINES</text>
					</g>
					<line class="st39" x1="661.75" y1="328.17" x2="760" y2="328.17"/>
					<g>
						<text transform="matrix(1 0 0 1 761.2373 328.9585)" class="st15 st20 st17">$ 2.00</text>
					</g>
					<g>
						<rect x="625.33" y="334.79" class="st0" width="137.5" height="13.54"/>
						<text transform="matrix(1 0 0 1 625.333 342.1909)" class="st21 st22 st23">Lorem ipsum dolor sit amet.</text>
					</g>
				</g>
				<text transform="matrix(1 0 0 1 624.25 173.5835)" class="st12 st13 st14">DRINKS</text>
				<g>
					<g>
						<text transform="matrix(1 0 0 1 625.5464 197.2949)" class="st15 st16 st17">MINERAL WATER</text>
					</g>
					<line class="st39" x1="711.5" y1="197" x2="765.19" y2="197"/>
					<g>
						<text transform="matrix(1 0 0 1 761.2373 197.792)" class="st15 st20 st17">$ 2.00</text>
					</g>
					<g>
						<rect x="625.33" y="203.62" class="st0" width="137.5" height="13.54"/>
						<text transform="matrix(1 0 0 1 625.333 211.0239)" class="st21 st22 st23">Lorem ipsum dolor sit amet.</text>
					</g>
				</g>
				<g>
					<g>
						<text transform="matrix(1 0 0 1 625.5464 230.0864)" class="st15 st16 st17">FRESH FRUIT JUICE</text>
					</g>
					<line class="st39" x1="723.5" y1="229.79" x2="765.19" y2="229.79"/>
					<g>
						<text transform="matrix(1 0 0 1 761.2373 230.584)" class="st15 st20 st17">$ 2.00</text>
					</g>
					<g>
						<rect x="625.33" y="236.42" class="st0" width="137.5" height="13.54"/>
						<text transform="matrix(1 0 0 1 625.333 243.8159)" class="st21 st22 st23">Lorem ipsum dolor sit amet.</text>
					</g>
				</g>
			</g>
			<g>
				<text transform="matrix(1 0 0 1 630.7461 382.062)" class="st15 st20 st40">DAILY FROM 12PM - 23PM</text>
				<g>
					<path class="st27" d="M780.76,452.17H643.01c-7.11,0-12.88-5.76-12.88-12.88v-33.75c0-7.11,5.76-12.88,12.88-12.88h137.75
						c7.11,0,12.88,5.76,12.88,12.88v33.75C793.63,446.4,787.87,452.17,780.76,452.17z"/>
					<text transform="matrix(1 0 0 1 673.5093 412.0352)" class="st1 st13 st41">BOOK NOW</text>
					<text transform="matrix(1 0 0 1 641.8599 440.2432)" class="st1 st13 st42">089 12 456 78</text>
				</g>
			</g>
			<text transform="matrix(1 0 0 1 418.4604 577.3745)" class="st15 st26 st17">WWW.RESTAURANTWEBSITE.COM</text>
			<g>
				<g>
					<text transform="matrix(1 0 0 1 253.6367 70.4165)" class="st15 st20 st23">YOUR LOGO</text>
				</g>
				<g>
					<g>
						<g>
							<g>
								<path class="st15" d="M291.72,57.98H275.1c-0.26,0-0.46-0.2-0.46-0.45v-9.36c-2.43-1.15-3.98-3.56-3.98-6.2
									c0-3.29,2.43-6.14,5.72-6.77c0.44-3.41,3.47-6.03,7.04-6.03c3.57,0,6.6,2.62,7.04,6.03c3.28,0.63,5.71,3.48,5.71,6.77
									c0,2.64-1.55,5.04-3.98,6.2v9.36C292.19,57.78,291.98,57.98,291.72,57.98z M275.57,57.08h15.69v-9.2
									c0-0.18,0.11-0.34,0.28-0.41c2.25-0.95,3.7-3.11,3.7-5.5c0-2.96-2.27-5.52-5.28-5.94c-0.22-0.03-0.38-0.2-0.4-0.41
									c-0.24-3.11-2.94-5.55-6.15-5.55c-3.21,0-5.91,2.44-6.15,5.55c-0.02,0.21-0.18,0.38-0.4,0.41
									c-3.01,0.42-5.28,2.97-5.28,5.94c0,2.38,1.45,4.54,3.7,5.5c0.17,0.07,0.28,0.23,0.28,0.41V57.08z"/>
							</g>
						</g>
						<g>
							<path class="st15" d="M290.25,48.53c-2.41,0-3.91-1.47-3.99-1.54c-0.18-0.18-0.18-0.46,0.01-0.64
								c0.18-0.17,0.48-0.17,0.66,0.01c0.08,0.08,1.9,1.83,4.68,1.09c0.25-0.07,0.5,0.08,0.57,0.32c0.07,0.24-0.08,0.49-0.33,0.55
								C291.28,48.46,290.75,48.53,290.25,48.53z"/>
						</g>
						<g>
							<path class="st15" d="M276.44,48.5c-0.46,0-0.95-0.05-1.48-0.18c-0.25-0.06-0.4-0.31-0.34-0.55
								c0.06-0.24,0.31-0.39,0.56-0.33c2.81,0.68,4.63-1.17,4.65-1.19c0.18-0.18,0.47-0.19,0.66-0.02c0.19,0.17,0.2,0.46,0.02,0.64
								C280.44,46.95,278.92,48.5,276.44,48.5z"/>
						</g>
						<g>
							<path class="st15" d="M281.07,40.26C281.07,40.26,281.07,40.26,281.07,40.26c-1.51-0.02-2.7-0.46-3.52-1.33
								c-1.32-1.38-1.22-3.3-1.21-3.38c0.02-0.25,0.23-0.43,0.49-0.42c0.26,0.01,0.45,0.23,0.44,0.48c0,0.02-0.08,1.63,0.97,2.72
								c0.65,0.67,1.61,1.02,2.84,1.03c0.26,0,0.46,0.21,0.46,0.46C281.54,40.06,281.33,40.26,281.07,40.26z"/>
						</g>
						<g>
							<rect x="275.12" y="54.22" class="st15" width="16.45" height="1.07"/>
						</g>
					</g>
				</g>
			</g>
		</g>
	</g>
</g>
</svg>
